<?xml version="1.0" encoding="UTF-8"?>
<svg version="1.1" xmlns="http://www.w3.org/2000/svg" width="500" height="500">
<path d="M0 0 C165 0 330 0 500 0 C500 165 500 330 500 500 C335 500 170 500 0 500 C0 335 0 170 0 0 Z " fill="#000000" transform="translate(0,0)"/>
<path d="M0 0 C2.40820312 0.15454102 2.40820312 0.15454102 5 1 C10.46525243 8.56276404 12.69087199 19.69690367 15.5 28.5625 C15.98531119 30.08155587 16.47066298 31.60059876 16.95605469 33.11962891 C19.4686142 41.01251601 21.96458392 48.91293296 24.25 56.875 C24.45431641 57.56795166 24.65863281 58.26090332 24.86914062 58.97485352 C25.78515481 62.29883569 26.28174827 64.72989865 25 68 C21.9847118 61.21794991 19.5307425 54.26097404 17.04882812 47.26953125 C15.49021646 42.92704093 13.89080971 38.65461514 11.97265625 34.45703125 C9.36731971 28.73995982 7.45475128 22.79942678 5.46875 16.84570312 C5.17742187 15.99041016 4.88609375 15.13511719 4.5859375 14.25390625 C4.3286084 13.48377197 4.0712793 12.7136377 3.80615234 11.92016602 C3.0629461 9.81077599 3.0629461 9.81077599 1 8 C-4.902027 23.29419498 -10.7546526 38.60764805 -16.48046875 53.96875 C-19.35277777 61.61919882 -22.29312971 69.24317785 -25.31587219 76.8354187 C-26.38391092 79.52011805 -27.4443196 82.20780348 -28.50415039 84.89575195 C-29.04855429 86.27081984 -29.59647823 87.64449871 -30.14770508 89.0168457 C-30.9583124 91.03752802 -31.75569531 93.06301253 -32.55078125 95.08984375 C-33.02169189 96.27441162 -33.49260254 97.45897949 -33.9777832 98.67944336 C-35.01324515 102.04302537 -35.3952848 104.50899791 -35 108 C-30.4839519 112.28738744 -26.40066566 112.62444286 -20.5 112.5 C-19.39978516 112.52320313 -19.39978516 112.52320313 -18.27734375 112.546875 C-13.10899775 112.5098922 -10.04502575 111.46020275 -6 108 C-4.01321157 104.85289981 -3.70883494 102.26504827 -3.5859375 98.578125 C-3.52792969 97.04091797 -3.52792969 97.04091797 -3.46875 95.47265625 C-3.4378125 94.40917969 -3.406875 93.34570312 -3.375 92.25 C-3.31699219 90.63158203 -3.31699219 90.63158203 -3.2578125 88.98046875 C-3.16365369 86.32048225 -3.07802613 83.6605006 -3 81 C-1.02 81 0.96 81 3 81 C3.11662261 85.04142215 3.1873935 89.08240865 3.25 93.125 C3.28351563 94.26710938 3.31703125 95.40921875 3.3515625 96.5859375 C3.42669309 103.04716827 3.44171721 107.13603545 -1 112 C-6.94520484 117.64032254 -13.09244587 117.20442135 -20.875 117.25 C-21.74769531 117.270625 -22.62039063 117.29125 -23.51953125 117.3125 C-29.17784038 117.34653494 -32.96755394 116.59820523 -38 114 C-39.2065625 113.4121875 -39.2065625 113.4121875 -40.4375 112.8125 C-40.953125 112.544375 -41.46875 112.27625 -42 112 C-42.350625 113.134375 -42.70125 114.26875 -43.0625 115.4375 C-46.75349836 126.4930847 -51.55893228 137.16779661 -56.51391602 147.703125 C-57.8924838 150.76147549 -59.1143694 153.82746997 -60.2890625 156.96875 C-62.84608411 163.68105121 -65.60944566 170.29284424 -68.44921875 176.88867188 C-69.26669697 178.78881028 -70.07883417 180.69117579 -70.890625 182.59375 C-71.40625 183.79515625 -71.921875 184.9965625 -72.453125 186.234375 C-72.91879883 187.31944336 -73.38447266 188.40451172 -73.86425781 189.52246094 C-75 192 -75 192 -76 193 C-77.99958364 193.04080783 -80.00045254 193.04254356 -82 193 C-91.65579156 175.84306235 -91.65579156 175.84306235 -95 169 C-97.45427647 163.98051931 -100.13753681 159.11825367 -102.875 154.25 C-106.54623378 147.71807354 -110.02957261 141.1255761 -113.31201172 134.38964844 C-116.51714959 126.66856136 -116.51714959 126.66856136 -122 121 C-123.84953761 120.85471797 -125.70414785 120.7728482 -127.55859375 120.71875 C-128.78465332 120.68193115 -130.01071289 120.6451123 -131.27392578 120.60717773 C-132.66177608 120.57115095 -134.0496345 120.53543631 -135.4375 120.5 C-136.88785875 120.45974103 -138.3382168 120.41945697 -139.78857422 120.37915039 C-164.85332256 119.70975522 -189.92962806 119.38937656 -215 119 C-215 118.34 -215 117.68 -215 117 C-209.09247176 115.7226966 -204.39645624 116 -198 116 C-198 104.45 -198 92.9 -198 81 C-196.02 81 -194.04 81 -192 81 C-192 92.55 -192 104.1 -192 116 C-189.03 115.505 -189.03 115.505 -186 115 C-184.42066497 114.926073 -182.83883972 114.8915148 -181.2578125 114.90234375 C-180.50129395 114.90484131 -179.74477539 114.90733887 -178.96533203 114.90991211 C-177.55936768 114.92356812 -177.55936768 114.92356812 -176.125 114.9375 C-173.11375 114.958125 -170.1025 114.97875 -167 115 C-167 103.78 -167 92.56 -167 81 C-159.636875 80.814375 -159.636875 80.814375 -152.125 80.625 C-149.83393311 80.54306396 -149.83393311 80.54306396 -147.49658203 80.45947266 C-139.04635121 80.35683827 -132.58467955 81.18484922 -126 87 C-122.37937866 91.29291838 -121.59962187 95.08121735 -121.64453125 100.578125 C-122.24867065 104.69423956 -124.33282085 107.86700365 -127 111 C-127.99 111.66 -128.98 112.32 -130 113 C-129.26394531 113.02578125 -128.52789062 113.0515625 -127.76953125 113.078125 C-126.30580078 113.16320312 -126.30580078 113.16320312 -124.8125 113.25 C-123.84957031 113.29640625 -122.88664062 113.3428125 -121.89453125 113.390625 C-118.07419684 114.19490593 -116.7216852 115.15152822 -114 118 C-111.76252141 121.51388738 -109.85306855 125.17803401 -107.9375 128.875 C-106.78574838 131.05239665 -105.63339125 133.2294731 -104.48046875 135.40625 C-103.90087402 136.50839844 -103.3212793 137.61054688 -102.72412109 138.74609375 C-100.61117267 142.73382762 -98.43906681 146.68685111 -96.2590332 150.63818359 C-91.95605241 158.44216591 -87.75681231 166.28947772 -83.75 174.25 C-83.17523926 175.38574463 -83.17523926 175.38574463 -82.58886719 176.54443359 C-80 181.75249678 -80 181.75249678 -80 184 C-79.34 184 -78.68 184 -78 184 C-77.61585938 182.80890625 -77.23171875 181.6178125 -76.8359375 180.390625 C-74.62531733 173.77166192 -72.13429311 167.26037287 -69.625 160.75 C-69.23998825 159.74886673 -69.23998825 159.74886673 -68.84719849 158.72750854 C-63.91646171 145.95192694 -58.42346064 133.47962007 -52.71484375 121.03515625 C-51.80923057 119.02373689 -50.90419243 117.01205843 -50 115 C-49.66653564 114.30310059 -49.33307129 113.60620117 -48.98950195 112.88818359 C-46.26168567 106.67993763 -46.44109438 100.18690791 -46.3125 93.5 C-46.27833984 92.29601562 -46.24417969 91.09203125 -46.20898438 89.8515625 C-46.12702805 86.90113484 -46.05770616 83.95098484 -46 81 C-44.02 81 -42.04 81 -40 81 C-39.67 84.96 -39.34 88.92 -39 93 C-38.69296143 92.21463867 -38.38592285 91.42927734 -38.06958008 90.62011719 C-36.90575462 87.64509519 -35.74073082 84.67054579 -34.57495117 81.69628906 C-34.07513801 80.42042915 -33.57577295 79.14439358 -33.0769043 77.86816406 C-29.45253078 68.59735971 -25.69451139 59.39195798 -21.82788086 50.21948242 C-19.33884424 44.28698186 -16.92456793 38.32848986 -14.5546875 32.34765625 C-14.25508118 31.5923764 -13.95547485 30.83709656 -13.64678955 30.05892944 C-12.40641197 26.93080343 -11.16652917 23.80250653 -9.93310547 20.67163086 C-9.01927119 18.35371094 -8.09993818 16.0380349 -7.1796875 13.72265625 C-6.76709183 12.66945946 -6.76709183 12.66945946 -6.34616089 11.59498596 C-2.8628056 2.8628056 -2.8628056 2.8628056 0 0 Z " fill="#EFEFEF" transform="translate(293,144)"/>
<path d="M0 0 C4.73324406 -0.09210637 9.46334929 -0.17165193 14.19677734 -0.21972656 C15.80495774 -0.23977627 17.41306583 -0.26702364 19.02099609 -0.30175781 C21.3397002 -0.35057264 23.65743625 -0.37303428 25.9765625 -0.390625 C26.68930328 -0.41127014 27.40204407 -0.43191528 28.13638306 -0.45318604 C33.24721377 -0.45545593 36.04463563 0.83305835 40 4 C42 6 42 6 42.4375 9.3125 C42 13 42 13 39.9375 15.75 C36.6672604 18.25486438 33.84238556 19.56852303 30 21 C33.27470869 25.63846913 36.638851 30.17813625 42.33837891 31.57177734 C47.88753939 32.2554848 53.42066505 32.19476118 59 32 C59.22429687 31.33226562 59.44859375 30.66453125 59.6796875 29.9765625 C61.39707335 26.1048228 63.69422082 22.83086597 66.125 19.375 C66.61564941 18.67439453 67.10629883 17.97378906 67.61181641 17.25195312 C68.60451687 15.83686136 69.5991255 14.42310614 70.59570312 13.01074219 C71.86578661 11.19217342 73.10274447 9.35665114 74.328125 7.5078125 C75.00359375 6.51523438 75.6790625 5.52265625 76.375 4.5 C76.96023438 3.6234375 77.54546875 2.746875 78.1484375 1.84375 C80 0 80 0 82.49609375 -0.56640625 C85.97358869 0.22023457 86.71644667 1.62516023 88.6875 4.5625 C89.368125 5.55894531 90.04875 6.55539063 90.75 7.58203125 C91.50088929 8.72076826 92.2508397 9.86012476 93 11 C93.85315034 12.27542001 94.70735174 13.55013745 95.5625 14.82421875 C97.25455918 17.34964756 98.93371154 19.88297702 100.60546875 22.421875 C102.26953031 24.94532083 104.01070013 27.39265762 105.80078125 29.828125 C108 33 108 33 108 35 C104.8125 35.5 104.8125 35.5 101 35 C98.44648935 32.23158994 96 28.86112137 96 25 C91.05 25 86.1 25 81 25 C81 24.34 81 23.68 81 23 C81.62648438 22.93941406 82.25296875 22.87882812 82.8984375 22.81640625 C83.71570313 22.73261719 84.53296875 22.64882812 85.375 22.5625 C86.59316406 22.44068359 86.59316406 22.44068359 87.8359375 22.31640625 C90.04272805 22.10909886 90.04272805 22.10909886 92 21 C91.4225 20.15695313 90.845 19.31390625 90.25 18.4453125 C89.49975807 17.33870565 88.74977126 16.23192581 88 15.125 C87.2575 14.03445312 86.515 12.94390625 85.75 11.8203125 C84 9 84 9 84 7 C80.22732268 8.25755911 79.83324743 9.45738728 77.8125 12.8125 C74.02170242 18.98469606 70.03482605 24.98315414 66 31 C76.89 31.495 76.89 31.495 88 32 C88 32.33 88 32.66 88 33 C87.27820557 33.02505615 86.55641113 33.0501123 85.81274414 33.07592773 C82.562465 33.19151302 79.31250312 33.31440774 76.0625 33.4375 C74.92619141 33.47681641 73.78988281 33.51613281 72.61914062 33.55664062 C71.53955078 33.59853516 70.45996094 33.64042969 69.34765625 33.68359375 C67.84730835 33.73858032 67.84730835 33.73858032 66.31665039 33.79467773 C64.03930812 33.74671841 64.03930812 33.74671841 63 35 C61.449578 35.07475516 59.89583458 35.08324055 58.34375 35.0625 C56.93416016 35.05089844 56.93416016 35.05089844 55.49609375 35.0390625 C53.49869792 35.01302083 51.50130208 34.98697917 49.50390625 34.9609375 C48.09431641 34.94933594 48.09431641 34.94933594 46.65625 34.9375 C45.78806641 34.92589844 44.91988281 34.91429687 44.02539062 34.90234375 C42.00354311 34.77237957 42.00354311 34.77237957 41 36 C40.11441406 35.85820312 39.22882813 35.71640625 38.31640625 35.5703125 C32.23769467 34.60553613 26.07486435 34.85600867 19.9375 34.875 C18.68388672 34.87113281 17.43027344 34.86726563 16.13867188 34.86328125 C14.92630859 34.86457031 13.71394531 34.86585938 12.46484375 34.8671875 C10.81923462 34.86887939 10.81923462 34.86887939 9.14038086 34.87060547 C5.95184824 34.93505552 5.95184824 34.93505552 2.65844727 35.57080078 C1.78115967 35.71243652 0.90387207 35.85407227 0 36 C-0.33 35.67 -0.66 35.34 -1 35 C-2.68183948 34.76712992 -4.3712416 34.58735834 -6.0625 34.4375 C-6.98160156 34.35371094 -7.90070313 34.26992188 -8.84765625 34.18359375 C-9.91306641 34.09271484 -9.91306641 34.09271484 -11 34 C-11 33.67 -11 33.34 -11 33 C-5.555 32.505 -5.555 32.505 0 32 C0 21.44 0 10.88 0 0 Z " fill="#ECECEC" transform="translate(372,225)"/>
<path d="M0 0 C3.3 -0.0825 6.6 -0.165 10 -0.25 C11.02351562 -0.28641602 12.04703125 -0.32283203 13.1015625 -0.36035156 C20.29564235 -0.44665825 25.70902488 0.8132934 30.97265625 5.91015625 C33.01493195 10.06459542 32.5878423 14.5043424 32 19 C29.8905622 23.05012057 27.33892493 24.65649183 23.15991211 26.38916016 C18.87166947 27.60190833 14.48045757 27.30435165 10.0625 27.1875 C6.741875 27.125625 3.42125 27.06375 0 27 C0 18.09 0 9.18 0 0 Z " fill="#060606" transform="translate(132,229)"/>
<path d="M0 0 C3.47749494 0.78664082 4.22035292 2.19156648 6.19140625 5.12890625 C7.21234375 6.62357422 7.21234375 6.62357422 8.25390625 8.1484375 C9.00479554 9.28717451 9.75474595 10.42653101 10.50390625 11.56640625 C11.35705659 12.84182626 12.21125799 14.1165437 13.06640625 15.390625 C14.75846543 17.91605381 16.43761779 20.44938327 18.109375 22.98828125 C19.77343656 25.51172708 21.51460638 27.95906387 23.3046875 30.39453125 C25.50390625 33.56640625 25.50390625 33.56640625 25.50390625 35.56640625 C22.31640625 36.06640625 22.31640625 36.06640625 18.50390625 35.56640625 C15.9503956 32.79799619 13.50390625 29.42752762 13.50390625 25.56640625 C8.55390625 25.56640625 3.60390625 25.56640625 -1.49609375 25.56640625 C-1.49609375 24.90640625 -1.49609375 24.24640625 -1.49609375 23.56640625 C-0.86960937 23.50582031 -0.243125 23.44523437 0.40234375 23.3828125 C1.21960938 23.29902344 2.036875 23.21523437 2.87890625 23.12890625 C3.69101562 23.04769531 4.503125 22.96648437 5.33984375 22.8828125 C7.5466343 22.67550511 7.5466343 22.67550511 9.50390625 21.56640625 C8.92640625 20.72335938 8.34890625 19.8803125 7.75390625 19.01171875 C7.00366432 17.9051119 6.25367751 16.79833206 5.50390625 15.69140625 C4.76140625 14.60085937 4.01890625 13.5103125 3.25390625 12.38671875 C1.50390625 9.56640625 1.50390625 9.56640625 1.50390625 7.56640625 C-2.26877107 8.82396536 -2.66284632 10.02379353 -4.68359375 13.37890625 C-8.47439133 19.55110231 -12.4612677 25.54956039 -16.49609375 31.56640625 C-9.23609375 31.89640625 -1.97609375 32.22640625 5.50390625 32.56640625 C5.50390625 32.89640625 5.50390625 33.22640625 5.50390625 33.56640625 C4.78211182 33.5914624 4.06031738 33.61651855 3.31665039 33.64233398 C0.06637125 33.75791927 -3.18359063 33.88081399 -6.43359375 34.00390625 C-7.56990234 34.04322266 -8.70621094 34.08253906 -9.87695312 34.12304688 C-10.95654297 34.16494141 -12.03613281 34.20683594 -13.1484375 34.25 C-14.6487854 34.30498657 -14.6487854 34.30498657 -16.17944336 34.36108398 C-18.45678563 34.31312466 -18.45678563 34.31312466 -19.49609375 35.56640625 C-21.26196289 35.58813477 -21.26196289 35.58813477 -23.53125 35.4453125 C-24.34013672 35.39697266 -25.14902344 35.34863281 -25.98242188 35.29882812 C-26.83255859 35.24275391 -27.68269531 35.18667969 -28.55859375 35.12890625 C-29.41259766 35.07669922 -30.26660156 35.02449219 -31.14648438 34.97070312 C-33.2633137 34.84061864 -35.37974619 34.70410654 -37.49609375 34.56640625 C-37.49609375 33.90640625 -37.49609375 33.24640625 -37.49609375 32.56640625 C-32.87609375 32.56640625 -28.25609375 32.56640625 -23.49609375 32.56640625 C-22.83609375 30.91640625 -22.17609375 29.26640625 -21.49609375 27.56640625 C-20.7648488 26.33972917 -19.99140245 25.13711415 -19.17578125 23.96484375 C-18.50216553 22.9893457 -18.50216553 22.9893457 -17.81494141 21.99414062 C-17.33847168 21.31673828 -16.86200195 20.63933594 -16.37109375 19.94140625 C-15.88044434 19.24080078 -15.38979492 18.54019531 -14.88427734 17.81835938 C-13.89157688 16.40326761 -12.89696825 14.98951239 -11.90039062 13.57714844 C-10.63030714 11.75857967 -9.39334928 9.92305739 -8.16796875 8.07421875 C-7.4925 7.08164063 -6.81703125 6.0890625 -6.12109375 5.06640625 C-5.53585937 4.18984375 -4.950625 3.31328125 -4.34765625 2.41015625 C-2.49609375 0.56640625 -2.49609375 0.56640625 0 0 Z " fill="#EDEDEE" transform="translate(454.49609375,224.43359375)"/>
<path d="M0 0 C3.22265625 -0.359375 3.22265625 -0.359375 7 0 C9.37109375 2.421875 9.37109375 2.421875 11.4375 5.75 C11.99328735 6.62168823 11.99328735 6.62168823 12.56030273 7.51098633 C13.33281103 8.7231015 14.09615353 9.94110319 14.85058594 11.16455078 C15.97670399 12.96279962 17.14984767 14.71639377 18.3515625 16.46484375 C24 24.69799028 24 24.69799028 24 27 C24.66 27 25.32 27 26 27 C26.27400635 26.26338135 26.5480127 25.5267627 26.83032227 24.76782227 C27.92700528 22.17272827 29.14520985 20.04510732 30.71484375 17.71484375 C31.23626953 16.93689453 31.75769531 16.15894531 32.29492188 15.35742188 C32.83697266 14.55884766 33.37902344 13.76027344 33.9375 12.9375 C34.47568359 12.13505859 35.01386719 11.33261719 35.56835938 10.50585938 C37.03382425 8.3284424 38.50098388 6.15446267 40 4 C40.71651733 2.88927124 40.71651733 2.88927124 41.44750977 1.75610352 C43 0 43 0 46.6875 -0.25 C47.780625 -0.1675 48.87375 -0.085 50 0 C44.97494057 7.97828796 39.80695736 15.85200241 34.5625 23.6875 C33.83095703 24.78255859 33.09941406 25.87761719 32.34570312 27.00585938 C30.56486994 29.67128944 28.78295434 32.33598856 27 35 C23.92929048 34.68812851 22.41572343 34.44583383 20.27416992 32.14916992 C19.51003784 30.95191284 19.51003784 30.95191284 18.73046875 29.73046875 C18.15506348 28.84649414 17.5796582 27.96251953 16.98681641 27.05175781 C16.39304199 26.10655273 15.79926758 25.16134766 15.1875 24.1875 C13.94922762 22.26952552 12.71094641 20.35155675 11.47265625 18.43359375 C10.87855957 17.50144043 10.28446289 16.56928711 9.67236328 15.60888672 C7.54204056 12.28558327 5.33924346 9.01789062 3.125 5.75 C0 1.12133891 0 1.12133891 0 0 Z " fill="#EEEDEE" transform="translate(27,225)"/>
<path d="M0 0 C3.1875 -0.3125 3.1875 -0.3125 7 0 C9.3515625 2.15625 9.3515625 2.15625 12 5 C14.03381368 6.96851844 16.11058788 8.88962339 18.1875 10.8125 C18.72052734 11.31458984 19.25355469 11.81667969 19.80273438 12.33398438 C22.46351418 15.12085707 22.46351418 15.12085707 26 16 C26.66 15.01 27.32 14.02 28 13 C28.66 13 29.32 13 30 13 C30.23332031 12.43796875 30.46664062 11.8759375 30.70703125 11.296875 C33.35171692 6.5987627 37.64700858 3.09445143 42 0 C44.76936483 -0.72775196 46.14884885 -0.55783392 49 0 C45.149574 4.70607622 41.03851366 9.07110613 36.75 13.375 C36.21858398 13.91092773 35.68716797 14.44685547 35.13964844 14.99902344 C31.24753818 18.87623091 31.24753818 18.87623091 29 20 C28.68758629 22.54941373 28.48696579 25.00361513 28.375 27.5625 C28.33632812 28.27341797 28.29765625 28.98433594 28.2578125 29.71679688 C28.16328217 31.47742425 28.08054183 33.23867728 28 35 C25.69 35 23.38 35 21 35 C21.04455322 34.11481689 21.08910645 33.22963379 21.13500977 32.31762695 C21.12297332 25.13571907 20.52883498 20.64789481 15.52734375 15.29296875 C13.69633854 13.55646704 11.83189489 11.85461915 9.9375 10.1875 C8.07085093 8.45264422 6.20492195 6.7170132 4.33984375 4.98046875 C3.50831787 4.23692139 2.67679199 3.49337402 1.82006836 2.72729492 C1.2194458 2.1572876 0.61882324 1.58728027 0 1 C0 0.67 0 0.34 0 0 Z " fill="#E8E7E8" transform="translate(181,225)"/>
<path d="M0 0 C14.85 0 29.7 0 45 0 C45 1.32 45 2.64 45 4 C38.4 4 31.8 4 25 4 C25 14.23 25 24.46 25 35 C23.02 35 21.04 35 19 35 C19 24.77 19 14.54 19 4 C12.73 4 6.46 4 0 4 C0 2.68 0 1.36 0 0 Z " fill="#F0F0F0" transform="translate(310,225)"/>
<path d="M0 0 C4.06321081 -0.10795246 8.12355279 -0.1873055 12.1875 -0.25 C13.33798828 -0.28351563 14.48847656 -0.31703125 15.67382812 -0.3515625 C16.78564453 -0.36445313 17.89746094 -0.37734375 19.04296875 -0.390625 C20.06414795 -0.41157227 21.08532715 -0.43251953 22.13745117 -0.45410156 C25.71103469 0.11279527 27.3835631 1.57060156 30 4 C29.68299507 6.93229565 29.45971838 8.54876277 27.31933594 10.6496582 C24.39510808 12.35217444 22.51073435 12.34455206 19.140625 12.29296875 C18.02558594 12.28330078 16.91054688 12.27363281 15.76171875 12.26367188 C14.02341797 12.2259668 14.02341797 12.2259668 12.25 12.1875 C10.48849609 12.16719727 10.48849609 12.16719727 8.69140625 12.14648438 C5.79407483 12.11115106 2.89697935 12.0573449 0 12 C0 8.04 0 4.08 0 0 Z " fill="#050505" transform="translate(378,229)"/>
<path d="M0 0 C12.71889401 -1.52626728 12.71889401 -1.52626728 18.22265625 2.15625 C25 8.94334532 25 8.94334532 25 12 C16.75 12 8.5 12 0 12 C0 8.04 0 4.08 0 0 Z " fill="#0F0F0E" transform="translate(378,245)"/>
<path d="M0 0 C2.03063235 3.04594853 2.75469729 5.2610361 3.69140625 8.76953125 C3.99626953 9.90583984 4.30113281 11.04214844 4.61523438 12.21289062 C4.92783203 13.40076172 5.24042969 14.58863281 5.5625 15.8125 C5.87896484 16.98876953 6.19542969 18.16503906 6.52148438 19.37695312 C7.90511197 24.5736351 9.18086203 29.68032229 10 35 C7.45131022 32.75247027 6.36437375 30.85391657 5.28125 27.6484375 C4.98863281 26.79636719 4.69601562 25.94429687 4.39453125 25.06640625 C3.95173828 23.73416016 3.95173828 23.73416016 3.5 22.375 C3.20480469 21.51003906 2.90960938 20.64507812 2.60546875 19.75390625 C1.72694574 17.17251925 0.86139897 14.58714689 0 12 C-0.29261719 11.12375977 -0.58523438 10.24751953 -0.88671875 9.34472656 C-1.59238059 7.23022577 -2.29682248 5.11532798 -3 3 C-2.01 2.01 -1.02 1.02 0 0 Z " fill="#DFDFDF" transform="translate(309,177)"/>
<path d="M0 0 C1.94539023 3.52106829 3.05706819 7.1475537 4.1875 11 C4.55230469 12.216875 4.91710937 13.43375 5.29296875 14.6875 C5.94211789 17.72881752 6.11269179 19.16511645 5 22 C4.28161123 20.35796853 3.56705603 18.71416168 2.87109375 17.0625 C2.29621347 15.70134849 1.7053121 14.34683894 1.09765625 13 C-0.95030988 8.16793245 -1.17448721 5.1250351 0 0 Z " fill="#D2D2D2" transform="translate(313,190)"/>
<path d="M0 0 C0 0.33 0 0.66 0 1 C2.97 1.33 5.94 1.66 9 2 C9 2.33 9 2.66 9 3 C1.41 3 -6.18 3 -14 3 C-14 2.34 -14 1.68 -14 1 C-9.23692563 0.04738513 -4.8333472 -0.08333357 0 0 Z " fill="#A6A6A6" transform="translate(92,260)"/>
</svg>
