<?xml version="1.0" standalone="no"?>
<!DOCTYPE svg PUBLIC "-//W3C//DTD SVG 20010904//EN"
 "http://www.w3.org/TR/2001/REC-SVG-20010904/DTD/svg10.dtd">
<svg version="1.0" xmlns="http://www.w3.org/2000/svg"
 width="1024.000000pt" height="1024.000000pt" viewBox="0 0 1024.000000 1024.000000"
 preserveAspectRatio="xMidYMid meet">

<g transform="translate(0.000000,1024.000000) scale(0.100000,-0.100000)"
fill="#000000" stroke="none">
<path d="M0 5120 l0 -5120 5120 0 5120 0 0 5120 0 5120 -5120 0 -5120 0 0
-5120z m6930 3136 c0 -20 -19 -31 -32 -18 -6 6 -7 15 -4 21 10 16 36 13 36 -3z
m-632 -168 c-45 -62 -105 -144 -133 -183 -28 -38 -91 -128 -140 -198 -110
-156 -127 -180 -388 -543 -115 -159 -253 -350 -308 -424 -54 -74 -99 -139 -99
-144 0 -6 228 -7 570 -3 314 4 570 3 570 -1 -1 -4 -70 -62 -154 -129 -254
-202 -805 -690 -1121 -993 -238 -227 -257 -245 -246 -222 10 19 9 22 -7 22
-20 0 -45 -24 -55 -52 -7 -19 12 -25 28 -9 16 14 -447 -442 -481 -474 -52 -49
-78 -71 -70 -57 4 7 1 12 -8 12 -17 0 -139 -137 -132 -149 3 -4 -21 -32 -52
-62 -51 -48 -52 -49 -12 -6 24 26 38 47 31 47 -15 0 -41 -26 -223 -223 -71
-76 -128 -143 -128 -149 0 -6 12 -1 27 13 25 22 -72 -87 -121 -136 l-20 -20
15 22 c59 89 132 195 249 359 74 106 157 224 184 263 27 39 53 71 57 71 17 0
101 99 231 272 118 156 134 182 133 215 0 47 36 105 67 110 13 2 29 4 36 5 6
1 10 3 8 5 -2 2 6 15 18 28 12 13 23 36 24 51 1 15 11 43 22 61 26 44 25 51
-1 22 -11 -13 3 11 32 54 28 43 56 80 62 84 6 3 7 1 3 -5 -11 -18 9 -14 35 6
23 19 21 61 -2 46 -8 -4 -9 -3 -5 5 4 6 12 8 18 5 7 -4 8 -2 4 4 -8 14 59 117
77 117 6 1 11 6 10 13 -2 7 47 84 107 171 61 88 110 162 110 165 0 3 -70 6
-155 6 -129 0 -155 2 -155 15 0 8 -8 19 -18 24 -11 6 -132 11 -275 12 -164 1
-257 6 -257 12 0 6 53 62 118 125 64 63 108 108 98 101 -17 -12 -19 -12 -11 0
5 9 2 19 -11 28 -16 12 -23 9 -64 -29 -26 -24 17 20 94 96 149 147 537 506
645 597 125 105 220 186 422 359 112 97 314 269 449 382 135 113 272 231 305
262 33 30 63 55 67 56 4 0 -29 -51 -74 -112z m1147 -67 c7 -12 -12 -24 -25
-16 -11 7 -4 25 10 25 5 0 11 -4 15 -9z m-327 -139 c2 -7 -3 -12 -12 -12 -9 0
-16 7 -16 16 0 17 22 14 28 -4z m1078 -63 c10 -17 -13 -36 -27 -22 -12 12 -4
33 11 33 5 0 12 -5 16 -11z m-2566 -33 c0 -2 -12 -11 -27 -20 l-28 -17 24 20
c23 21 31 25 31 17z m1745 -92 c315 -41 555 -165 638 -330 124 -245 -12 -577
-375 -919 -329 -309 -838 -651 -1405 -942 -192 -99 -238 -118 -286 -122 -5 -1
-5 -6 -2 -11 4 -6 -23 -23 -60 -40 -75 -33 -88 -37 -59 -15 21 16 21 16 -61
17 -40 0 -83 -14 -217 -71 -260 -109 -468 -192 -523 -207 l-49 -13 40 37 c181
169 181 168 265 202 126 50 404 180 407 191 2 5 9 7 15 3 7 -3 4 1 -5 8 -15
13 -15 15 1 25 20 13 24 44 4 36 -7 -3 -10 -9 -7 -14 3 -5 -2 -6 -11 -3 -9 4
-15 8 -13 9 2 2 80 42 173 90 252 129 392 207 565 313 772 472 1202 906 1227
1237 7 100 -21 171 -98 247 -138 135 -382 198 -764 198 -167 0 -421 -19 -532
-40 -24 -4 -43 -5 -43 -3 0 3 15 19 33 36 25 24 48 33 102 43 160 28 341 46
525 53 236 8 369 4 515 -15z m557 -25 c115 -58 236 -166 297 -264 18 -27 41
-81 53 -119 18 -59 20 -85 15 -185 -7 -140 -23 -204 -87 -338 -64 -135 -117
-216 -237 -359 -404 -480 -1095 -968 -1936 -1366 -275 -131 -321 -149 -344
-142 -14 4 -15 3 -5 -4 11 -7 7 -12 -15 -20 -61 -22 -67 -22 -33 -3 19 11 33
21 30 21 -3 1 -13 3 -23 5 -10 2 -27 11 -37 20 -10 9 -35 17 -55 17 -30 0 -17
9 97 63 307 144 448 215 448 222 0 4 -4 14 -9 21 -7 12 -14 11 -41 -3 -17 -9
-33 -15 -35 -13 -2 2 74 43 168 92 681 353 1123 654 1523 1039 575 552 656
1015 225 1282 -118 73 -117 94 1 34z m-2477 1 c3 -5 0 -10 -9 -10 -8 0 -23 -3
-33 -6 -16 -5 -16 -4 1 10 23 19 32 20 41 6z m-85 -133 c-8 -8 -94 -79 -191
-159 -134 -112 -186 -149 -220 -158 -24 -6 -101 -34 -172 -62 -103 -40 -134
-49 -165 -43 -31 5 -60 -4 -182 -55 -347 -146 -747 -367 -1020 -564 -36 -25
-85 -61 -110 -78 l-45 -31 30 32 c45 49 293 237 455 345 179 119 520 305 790
432 187 87 289 131 575 246 110 44 211 86 225 94 32 17 48 18 30 1z m1671 -50
c-13 -13 -31 0 -24 19 4 11 8 12 20 3 9 -8 10 -16 4 -22z m-2563 -35 c4 -28
-24 -40 -45 -19 -21 21 -9 49 19 45 15 -2 24 -11 26 -26z m2407 -16 c220 -35
363 -92 457 -183 77 -75 100 -226 51 -333 l-20 -45 0 75 c1 98 -26 161 -97
229 -59 55 -176 118 -278 149 -188 58 -594 80 -868 46 -155 -19 -172 -17 -139
11 18 15 20 15 10 3 -17 -22 3 -25 25 -4 19 19 138 45 282 62 141 16 447 11
577 -10z m1645 9 c19 -23 8 -50 -20 -50 -16 0 -26 6 -28 18 -4 18 14 47 28 47
4 0 13 -7 20 -15z m-5480 -245 c0 -5 -4 -10 -10 -10 -5 0 -10 5 -10 10 0 6 5
10 10 10 6 0 10 -4 10 -10z m3100 -45 c0 -8 -4 -15 -9 -15 -13 0 -22 16 -14
24 11 11 23 6 23 -9z m2530 -45 c0 -21 -15 -27 -25 -10 -7 12 2 30 16 30 5 0
9 -9 9 -20z m-2732 -78 c2 -7 -3 -12 -12 -12 -9 0 -16 7 -16 16 0 17 22 14 28
-4z m-1778 -239 c0 -42 -192 -235 -213 -214 -11 11 35 81 54 81 5 0 9 11 9 24
0 27 35 76 55 76 8 0 29 9 47 20 35 21 48 25 48 13z m-1560 -132 c0 -19 -23
-35 -34 -24 -14 15 -5 43 14 43 13 0 20 -7 20 -19z m5610 -98 c-113 -203 -346
-472 -610 -707 -183 -162 -514 -415 -527 -403 -3 4 -29 -5 -57 -20 -65 -32
-54 -22 69 62 460 317 871 707 1088 1032 34 51 64 93 65 93 2 0 -11 -26 -28
-57z m-1280 27 c0 -5 -4 -10 -10 -10 -5 0 -10 5 -10 10 0 6 5 10 10 10 6 0 10
-4 10 -10z m-2996 -26 c9 -3 16 -13 16 -20 0 -8 9 -27 21 -43 31 -43 35 -100
10 -149 -26 -51 -64 -72 -129 -72 -39 0 -58 6 -91 31 -40 28 -45 30 -89 20
-26 -5 -56 -13 -67 -16 -14 -4 -13 -2 5 8 l24 15 -24 4 c-19 3 -10 8 36 22
l62 19 6 47 c11 83 75 140 158 140 25 0 53 -3 62 -6z m-1324 -185 c0 -5 -7 -9
-15 -9 -15 0 -20 12 -9 23 8 8 24 -1 24 -14z m844 -55 c9 -3 16 -12 16 -20 0
-8 6 -14 13 -14 8 0 8 -3 -2 -9 -12 -8 -102 -19 -197 -26 -11 -1 -25 -5 -32
-9 -7 -4 -12 -3 -12 3 0 6 24 26 52 46 42 28 63 35 100 35 25 0 53 -3 62 -6z
m4706 -80 c0 -8 -5 -12 -10 -9 -6 4 -8 11 -5 16 9 14 15 11 15 -7z m-4446 -52
c5 -8 -62 -76 -137 -142 -24 -21 -27 -21 -21 -6 6 15 4 18 -9 13 -33 -13 -4
25 66 84 68 57 90 68 101 51z m-1504 -12 c0 -5 -4 -10 -10 -10 -5 0 -10 5 -10
10 0 6 5 10 10 10 6 0 10 -4 10 -10z m-305 -70 c3 -5 -1 -10 -9 -10 -9 0 -16
5 -16 10 0 6 4 10 9 10 6 0 13 -4 16 -10z m6099 -52 c20 -28 4 -58 -29 -58
-31 0 -50 32 -35 60 14 26 45 25 64 -2z m-5924 -118 c0 -13 -7 -20 -20 -20
-19 0 -27 20 -13 33 13 14 33 6 33 -13z m1800 -70 c8 -5 26 -20 39 -33 44 -48
38 -161 -12 -203 -12 -11 -17 -12 -11 -4 17 22 27 73 14 65 -7 -4 -9 2 -5 18
16 61 -56 134 -120 124 -27 -4 -33 -2 -28 9 3 8 -1 14 -8 14 -21 0 -2 12 33
20 33 8 71 4 98 -10z m3930 -10 c0 -5 -2 -10 -4 -10 -3 0 -8 5 -11 10 -3 6 -1
10 4 10 6 0 11 -4 11 -10z m-5556 -165 c-8 -19 -12 -35 -9 -35 3 0 -2 -11 -11
-25 -9 -14 -22 -25 -29 -25 -22 0 -64 -70 -139 -230 -51 -110 -55 -131 -46
-232 11 -118 41 -196 102 -263 49 -54 146 -112 227 -136 39 -11 42 -14 21 -19
-13 -3 -24 -13 -25 -21 -8 -50 453 -80 745 -50 316 33 743 112 799 148 l24 16
-20 -29 c-12 -16 -38 -48 -59 -71 l-39 -43 -155 -30 c-213 -42 -449 -76 -625
-91 -181 -14 -499 -6 -605 16 -41 8 -100 14 -130 14 -54 -1 -130 24 -130 43 0
5 -5 6 -12 2 -8 -5 -9 0 -6 14 4 12 2 20 -3 16 -5 -3 -9 -1 -9 5 0 5 -8 8 -17
6 -10 -2 -18 -4 -18 -5 0 -1 -8 -3 -18 -5 -10 -2 -30 8 -45 22 -15 13 -21 22
-14 18 7 -4 16 3 21 16 6 18 1 33 -26 71 -45 62 -73 137 -73 193 0 25 -4 45
-10 45 -33 0 -6 152 49 274 32 70 182 294 253 377 24 27 44 49 45 49 1 0 -5
-16 -13 -35z m3326 -205 c-8 -5 -19 -10 -25 -10 -5 0 -3 5 5 10 8 5 20 10 25
10 6 0 3 -5 -5 -10z m1295 -170 c-3 -5 -12 -10 -18 -10 -7 0 -6 4 3 10 19 12
23 12 15 0z m-2787 -11 c-2 -6 -8 -10 -13 -10 -5 0 -11 4 -13 10 -2 6 4 11 13
11 9 0 15 -5 13 -11z m2826 -62 c26 -19 17 -51 -16 -55 -31 -4 -48 29 -28 53
15 18 21 19 44 2z m-4487 -523 c-3 -3 -12 -4 -19 -1 -8 3 -5 6 6 6 11 1 17 -2
13 -5z m3926 -28 c3 -8 -1 -20 -9 -27 -12 -10 -18 -9 -31 3 -8 9 -12 21 -9 27
10 16 43 14 49 -3z m-4893 -346 c0 -5 -4 -10 -10 -10 -5 0 -10 5 -10 10 0 6 5
10 10 10 6 0 10 -4 10 -10z m2440 -43 c0 -2 -19 -21 -42 -42 l-43 -40 40 43
c36 39 45 47 45 39z m-2354 -999 c50 -79 117 -187 150 -240 32 -54 62 -98 65
-98 4 0 75 108 159 240 l153 240 105 0 104 0 -18 -27 c-10 -16 -49 -77 -87
-138 -291 -461 -288 -457 -345 -476 -48 -16 -149 -5 -181 19 -14 10 -68 86
-119 168 -163 263 -264 427 -269 440 -4 11 15 14 93 14 l99 0 91 -142z m1054
-178 l0 -320 -90 0 -90 0 0 320 0 320 90 0 90 0 0 -320z m868 288 c96 -35 153
-82 191 -160 93 -185 -22 -390 -247 -437 -32 -7 -168 -11 -342 -11 l-290 0 0
313 c0 173 3 317 7 321 5 4 143 6 308 4 295 -3 301 -4 373 -30z m552 -15 c24
-27 79 -86 124 -132 l80 -83 124 131 124 131 110 0 110 0 -37 -42 c-21 -24
-105 -113 -187 -200 l-148 -156 0 -121 0 -121 -95 0 -95 0 0 118 0 117 -168
181 c-92 99 -176 191 -186 202 l-19 22 110 0 110 0 43 -47z m962 -165 c3 -235
6 -245 67 -274 89 -43 321 -40 381 4 46 35 50 54 50 275 l0 207 89 0 89 0 7
-97 c11 -135 -1 -354 -20 -401 -50 -119 -207 -172 -480 -159 -198 9 -295 52
-341 151 -23 49 -24 60 -24 279 l0 227 89 0 90 0 3 -212z m1700 146 c1 -36 1
-68 -1 -70 -2 -2 -78 -4 -168 -4 l-163 0 0 -250 0 -250 -90 0 -90 0 0 183 c0
100 -3 212 -7 250 l-6 67 -163 0 -164 0 0 70 0 70 424 0 424 0 4 -66z m857 55
c140 -30 208 -161 146 -285 -23 -47 -90 -104 -122 -104 -7 0 -13 -4 -13 -8 0
-4 41 -57 90 -118 l90 -109 -107 -3 -108 -3 -29 33 c-15 18 -53 66 -83 106
l-55 72 -153 0 c-130 0 -154 -2 -159 -16 -3 -9 -6 -56 -6 -105 l0 -89 -90 0
-90 0 0 320 0 320 320 0 c189 0 339 -4 369 -11z m895 -19 c17 -18 332 -526
373 -602 2 -5 -42 -8 -99 -8 l-103 1 -95 155 c-52 86 -116 192 -143 237 -26
45 -51 83 -55 84 -4 2 -18 -16 -31 -40 -13 -23 -78 -131 -145 -239 l-121 -197
-103 0 c-58 -1 -102 3 -100 8 2 5 86 143 188 306 113 181 195 302 210 311 17
10 51 13 112 12 79 -3 90 -6 112 -28z m-14 -457 c0 -5 -50 -8 -112 -8 -101 0
-111 -2 -114 -19 -6 -43 2 -46 140 -48 l131 -2 -165 -6 c-91 -3 -167 -4 -169
-3 -1 1 14 22 35 47 l38 46 108 0 c59 0 108 -3 108 -7z m-3170 -348 c90 -18
191 -28 362 -37 130 -6 235 -15 233 -18 -3 -4 -87 -10 -187 -14 -101 -4 -214
-13 -253 -21 -239 -47 -440 -50 -639 -11 -67 13 -181 27 -255 31 -191 10 -212
21 -56 29 157 8 280 20 440 45 160 25 207 25 355 -4z"/>
<path d="M5104 5568 l-29 -33 33 29 c30 28 37 36 29 36 -2 0 -16 -15 -33 -32z"/>
<path d="M5019 5493 l-24 -28 28 24 c25 23 32 31 24 31 -2 0 -14 -12 -28 -27z"/>
<path d="M4715 5198 l-50 -53 53 50 c48 46 57 55 49 55 -1 0 -25 -24 -52 -52z"/>
<path d="M4535 5018 l-40 -43 43 40 c39 36 47 45 39 45 -2 0 -21 -19 -42 -42z"/>
<path d="M8070 7561 c0 -5 7 -12 16 -15 14 -5 15 -4 4 9 -14 17 -20 19 -20 6z"/>
<path d="M3853 6522 c-12 -2 -34 -17 -48 -33 -20 -25 -25 -41 -25 -85 0 -30 5
-54 10 -54 6 0 10 -6 10 -14 0 -17 25 -26 60 -22 14 2 30 4 37 5 6 0 25 13 42
27 27 22 31 33 31 73 0 26 -6 55 -12 64 -17 21 -77 44 -105 39z"/>
<path d="M1932 5065 c0 -16 2 -22 5 -12 2 9 2 23 0 30 -3 6 -5 -1 -5 -18z"/>
<path d="M2070 4866 c0 -2 8 -10 18 -17 15 -13 16 -12 3 4 -13 16 -21 21 -21
13z"/>
<path d="M2980 3127 l0 -184 106 -1 c173 -2 287 12 339 43 103 60 114 199 22
276 -45 38 -112 49 -294 49 l-173 0 0 -183z"/>
<path d="M7040 3235 l0 -75 219 0 c206 0 220 1 245 21 33 26 36 79 6 109 -19
19 -33 20 -245 20 l-225 0 0 -75z"/>
</g>
</svg>
